<?xml version="1.0" encoding="utf-8"?>
<!-- Generated by Mocodo 4.1.2 -->
<svg width="867" height="692" viewBox="0 0 867 692" xmlns="http://www.w3.org/2000/svg">
<rect x="0" y="0" width="867" height="692" fill="#ffffbf" stroke="none" stroke-width="0"/>

<!-- Association A_LIEU -->
<g>
	<line x1="202" y1="119" x2="58" y2="119" stroke="#74add1" stroke-width="2"/>
	<line x1="58" y1="279" x2="58" y2="119" stroke="#74add1" stroke-width="2"/>
	<g>
		<path d="M74 94 a14 14 90 0 1 14 14 V119 h-60 V108 a14 14 90 0 1 14 -14" fill="#abd9e9" stroke="#abd9e9" stroke-width="0"/>
		<path d="M88 119 v11 a14 14 90 0 1 -14 14 H42 a14 14 90 0 1 -14 -14 V119 H60" fill="#e0f3f8" stroke="#e0f3f8" stroke-width="0"/>
		<rect x="28" y="94" width="60" height="50" fill="none" rx="14" stroke="#74add1" stroke-width="2"/>
		<line x1="28" y1="119" x2="88" y2="119" stroke="#74add1" stroke-width="1"/>
		<text x="36" y="111.75" fill="#000000" font-family="Verdana" font-size="12">A_LIEU</text>
	</g>
	<text x="114" y="136" fill="#d73027" font-family="Verdana" font-size="12">1,1</text>
	<text x="63" y="229" fill="#d73027" font-family="Verdana" font-size="12">0,N</text>
</g>

<!-- Association EST_TYPE_EVENEMENT -->
<g>
	<line x1="202" y1="119" x2="375" y2="119" stroke="#74add1" stroke-width="2"/>
	<line x1="552" y1="119" x2="375" y2="119" stroke="#74add1" stroke-width="2"/>
	<g>
		<path d="M440 94 a14 14 90 0 1 14 14 V119 h-158 V108 a14 14 90 0 1 14 -14" fill="#abd9e9" stroke="#abd9e9" stroke-width="0"/>
		<path d="M454 119 v11 a14 14 90 0 1 -14 14 H310 a14 14 90 0 1 -14 -14 V119 H158" fill="#e0f3f8" stroke="#e0f3f8" stroke-width="0"/>
		<rect x="296" y="94" width="158" height="50" fill="none" rx="14" stroke="#74add1" stroke-width="2"/>
		<line x1="296" y1="119" x2="454" y2="119" stroke="#74add1" stroke-width="1"/>
		<text x="304" y="111.75" fill="#000000" font-family="Verdana" font-size="12">EST_TYPE_EVENEMENT</text>
	</g>
	<text x="269" y="111" fill="#d73027" font-family="Verdana" font-size="12">1,1</text>
	<text x="459" y="136" fill="#d73027" font-family="Verdana" font-size="12">0,N</text>
</g>

<!-- Association EST_INSCRIT -->
<g>
	<line x1="202" y1="388" x2="202" y2="279" stroke="#74add1" stroke-width="2"/>
	<line x1="202" y1="119" x2="202" y2="279" stroke="#74add1" stroke-width="2"/>
	<g>
		<path d="M228 254 a14 14 90 0 1 14 14 V279 h-80 V268 a14 14 90 0 1 14 -14" fill="#abd9e9" stroke="#abd9e9" stroke-width="0"/>
		<path d="M242 279 v11 a14 14 90 0 1 -14 14 H176 a14 14 90 0 1 -14 -14 V279 H80" fill="#e0f3f8" stroke="#e0f3f8" stroke-width="0"/>
		<rect x="162" y="254" width="80" height="50" fill="none" rx="14" stroke="#74add1" stroke-width="2"/>
		<line x1="162" y1="279" x2="242" y2="279" stroke="#74add1" stroke-width="1"/>
		<text x="170" y="271.75" fill="#000000" font-family="Verdana" font-size="12">Est_Inscrit</text>
	</g>
	<text x="207" y="321" fill="#d73027" font-family="Verdana" font-size="12">0,N</text>
	<text x="175" y="246" fill="#d73027" font-family="Verdana" font-size="12">0,N</text>
</g>

<!-- Association EST_FAIT -->
<g>
	<line x1="552" y1="514" x2="375" y2="279" stroke="#74add1" stroke-width="2"/>
	<line x1="202" y1="119" x2="375" y2="279" stroke="#74add1" stroke-width="2"/>
	<g>
		<path d="M398 254 a14 14 90 0 1 14 14 V279 h-74 V268 a14 14 90 0 1 14 -14" fill="#abd9e9" stroke="#abd9e9" stroke-width="0"/>
		<path d="M412 279 v11 a14 14 90 0 1 -14 14 H352 a14 14 90 0 1 -14 -14 V279 H74" fill="#e0f3f8" stroke="#e0f3f8" stroke-width="0"/>
		<rect x="338" y="254" width="74" height="50" fill="none" rx="14" stroke="#74add1" stroke-width="2"/>
		<line x1="338" y1="279" x2="412" y2="279" stroke="#74add1" stroke-width="1"/>
		<text x="346" y="271.75" fill="#000000" font-family="Verdana" font-size="12">EST_FAIT</text>
	</g>
	<text x="519.69" y="464" fill="#d73027" font-family="Verdana" font-size="12">0,N</text>
	<text x="269" y="175.02" fill="#d73027" font-family="Verdana" font-size="12">1,1</text>
</g>

<!-- Association JOUE -->
<g>
	<line x1="812" y1="388" x2="812" y2="279" stroke="#74add1" stroke-width="2"/>
	<line x1="681" y1="279" x2="812" y2="279" stroke="#74add1" stroke-width="2"/>
	<g>
		<path d="M821 254 a14 14 90 0 1 14 14 V279 h-46 V268 a14 14 90 0 1 14 -14" fill="#abd9e9" stroke="#abd9e9" stroke-width="0"/>
		<path d="M835 279 v11 a14 14 90 0 1 -14 14 H803 a14 14 90 0 1 -14 -14 V279 H46" fill="#e0f3f8" stroke="#e0f3f8" stroke-width="0"/>
		<rect x="789" y="254" width="46" height="50" fill="none" rx="14" stroke="#74add1" stroke-width="2"/>
		<line x1="789" y1="279" x2="835" y2="279" stroke="#74add1" stroke-width="1"/>
		<text x="796" y="271.75" fill="#000000" font-family="Verdana" font-size="12">JOUE</text>
	</g>
	<text x="817" y="346" fill="#d73027" font-family="Verdana" font-size="12">0,N</text>
	<text x="715" y="296" fill="#d73027" font-family="Verdana" font-size="12">1,1</text>
</g>

<!-- Association APPARTIENT -->
<g>
	<line x1="202" y1="388" x2="58" y2="388" stroke="#74add1" stroke-width="2"/>
	<line x1="58" y1="514" x2="58" y2="388" stroke="#74add1" stroke-width="2"/>
	<g>
		<path d="M90 363 a14 14 90 0 1 14 14 V388 h-92 V377 a14 14 90 0 1 14 -14" fill="#abd9e9" stroke="#abd9e9" stroke-width="0"/>
		<path d="M104 388 v11 a14 14 90 0 1 -14 14 H26 a14 14 90 0 1 -14 -14 V388 H92" fill="#e0f3f8" stroke="#e0f3f8" stroke-width="0"/>
		<rect x="12" y="363" width="92" height="50" fill="none" rx="14" stroke="#74add1" stroke-width="2"/>
		<line x1="12" y1="388" x2="104" y2="388" stroke="#74add1" stroke-width="1"/>
		<text x="20" y="380.75" fill="#000000" font-family="Verdana" font-size="12">APPARTIENT</text>
	</g>
	<text x="123" y="405" fill="#d73027" font-family="Verdana" font-size="12">0,N</text>
	<text x="63" y="464" fill="#d73027" font-family="Verdana" font-size="12">1,1</text>
</g>

<!-- Association A_FAVORI -->
<g>
	<line x1="202" y1="388" x2="375" y2="388" stroke="#74add1" stroke-width="2"/>
	<line x1="552" y1="514" x2="375" y2="388" stroke="#74add1" stroke-width="2"/>
	<g>
		<path d="M395 363 a14 14 90 0 1 14 14 V388 h-68 V377 a14 14 90 0 1 14 -14" fill="#abd9e9" stroke="#abd9e9" stroke-width="0"/>
		<path d="M409 388 v11 a14 14 90 0 1 -14 14 H355 a14 14 90 0 1 -14 -14 V388 H68" fill="#e0f3f8" stroke="#e0f3f8" stroke-width="0"/>
		<rect x="341" y="363" width="68" height="50" fill="none" rx="14" stroke="#74add1" stroke-width="2"/>
		<line x1="341" y1="388" x2="409" y2="388" stroke="#74add1" stroke-width="1"/>
		<text x="348" y="380.75" fill="#000000" font-family="Verdana" font-size="12">A_Favori</text>
	</g>
	<text x="259" y="405" fill="#d73027" font-family="Verdana" font-size="12">0,N</text>
	<text x="481" y="494.27" fill="#d73027" font-family="Verdana" font-size="12">0,N</text>
</g>

<!-- Association EST_STYLE -->
<g>
	<line x1="552" y1="514" x2="552" y2="388" stroke="#74add1" stroke-width="2"/>
	<line x1="552" y1="279" x2="552" y2="388" stroke="#74add1" stroke-width="2"/>
	<g>
		<path d="M580 363 a14 14 90 0 1 14 14 V388 h-84 V377 a14 14 90 0 1 14 -14" fill="#abd9e9" stroke="#abd9e9" stroke-width="0"/>
		<path d="M594 388 v11 a14 14 90 0 1 -14 14 H524 a14 14 90 0 1 -14 -14 V388 H84" fill="#e0f3f8" stroke="#e0f3f8" stroke-width="0"/>
		<rect x="510" y="363" width="84" height="50" fill="none" rx="14" stroke="#74add1" stroke-width="2"/>
		<line x1="510" y1="388" x2="594" y2="388" stroke="#74add1" stroke-width="1"/>
		<text x="518" y="380.75" fill="#000000" font-family="Verdana" font-size="12">EST_STYLE</text>
	</g>
	<text x="557" y="464" fill="#d73027" font-family="Verdana" font-size="12">1,1</text>
	<text x="557" y="330" fill="#d73027" font-family="Verdana" font-size="12">0,N</text>
</g>

<!-- Association FAIT_PARTIE -->
<g>
	<line x1="552" y1="514" x2="681" y2="388" stroke="#74add1" stroke-width="2"/>
	<line x1="681" y1="279" x2="681" y2="388" stroke="#74add1" stroke-width="2"/>
	<g>
		<path d="M707 363 a14 14 90 0 1 14 14 V388 h-80 V377 a14 14 90 0 1 14 -14" fill="#abd9e9" stroke="#abd9e9" stroke-width="0"/>
		<path d="M721 388 v11 a14 14 90 0 1 -14 14 H655 a14 14 90 0 1 -14 -14 V388 H80" fill="#e0f3f8" stroke="#e0f3f8" stroke-width="0"/>
		<rect x="641" y="363" width="80" height="50" fill="none" rx="14" stroke="#74add1" stroke-width="2"/>
		<line x1="641" y1="388" x2="721" y2="388" stroke="#74add1" stroke-width="1"/>
		<text x="649" y="380.75" fill="#000000" font-family="Verdana" font-size="12">Fait_Partie</text>
	</g>
	<text x="574.95" y="464" fill="#d73027" font-family="Verdana" font-size="12">0,N</text>
	<text x="686" y="338" fill="#d73027" font-family="Verdana" font-size="12">1,1</text>
</g>

<!-- Association EST_HEBERGER -->
<g>
	<line x1="552" y1="514" x2="375" y2="514" stroke="#74add1" stroke-width="2"/>
	<line x1="202" y1="514" x2="375" y2="514" stroke="#74add1" stroke-width="2"/>
	<g>
		<path d="M410 480 a14 14 90 0 1 14 14 V505 h-98 V494 a14 14 90 0 1 14 -14" fill="#abd9e9" stroke="#abd9e9" stroke-width="0"/>
		<path d="M424 505 v29 a14 14 90 0 1 -14 14 H340 a14 14 90 0 1 -14 -14 V505 H98" fill="#e0f3f8" stroke="#e0f3f8" stroke-width="0"/>
		<rect x="326" y="480" width="98" height="68" fill="none" rx="14" stroke="#74add1" stroke-width="2"/>
		<line x1="326" y1="505" x2="424" y2="505" stroke="#74add1" stroke-width="1"/>
		<text x="334" y="497.75" fill="#000000" font-family="Verdana" font-size="12">Est_Heberger</text>
		<text x="333" y="522.8" fill="#000000" font-family="Verdana" font-size="12">date_debut</text>
		<text x="333" y="539.8" fill="#000000" font-family="Verdana" font-size="12">date_fin</text>
	</g>
	<text x="481" y="531" fill="#d73027" font-family="Verdana" font-size="12">0,N</text>
	<text x="270" y="531" fill="#d73027" font-family="Verdana" font-size="12">0,N</text>
</g>

<!-- Association A_LIEN_VIDEO -->
<g>
	<line x1="812" y1="514" x2="681" y2="514" stroke="#74add1" stroke-width="2"/>
	<line x1="552" y1="514" x2="681" y2="514" stroke="#74add1" stroke-width="2"/>
	<g>
		<path d="M720 489 a14 14 90 0 1 14 14 V514 h-106 V503 a14 14 90 0 1 14 -14" fill="#abd9e9" stroke="#abd9e9" stroke-width="0"/>
		<path d="M734 514 v11 a14 14 90 0 1 -14 14 H642 a14 14 90 0 1 -14 -14 V514 H106" fill="#e0f3f8" stroke="#e0f3f8" stroke-width="0"/>
		<rect x="628" y="489" width="106" height="50" fill="none" rx="14" stroke="#74add1" stroke-width="2"/>
		<line x1="628" y1="514" x2="734" y2="514" stroke="#74add1" stroke-width="1"/>
		<text x="635" y="506.75" fill="#000000" font-family="Verdana" font-size="12">A_LIEN_VIDEO</text>
	</g>
	<text x="740" y="531" fill="#d73027" font-family="Verdana" font-size="12">1,1</text>
	<text x="601" y="531" fill="#d73027" font-family="Verdana" font-size="12">0,N</text>
</g>

<!-- Association EST_TYPE -->
<g>
	<line x1="202" y1="632" x2="58" y2="632" stroke="#74add1" stroke-width="2"/>
	<line x1="58" y1="514" x2="58" y2="632" stroke="#74add1" stroke-width="2"/>
	<g>
		<path d="M82 607 a14 14 90 0 1 14 14 V632 h-76 V621 a14 14 90 0 1 14 -14" fill="#abd9e9" stroke="#abd9e9" stroke-width="0"/>
		<path d="M96 632 v11 a14 14 90 0 1 -14 14 H34 a14 14 90 0 1 -14 -14 V632 H76" fill="#e0f3f8" stroke="#e0f3f8" stroke-width="0"/>
		<rect x="20" y="607" width="76" height="50" fill="none" rx="14" stroke="#74add1" stroke-width="2"/>
		<line x1="20" y1="632" x2="96" y2="632" stroke="#74add1" stroke-width="1"/>
		<text x="28" y="624.75" fill="#000000" font-family="Verdana" font-size="12">EST_TYPE</text>
	</g>
	<text x="128" y="649" fill="#d73027" font-family="Verdana" font-size="12">0,N</text>
	<text x="63" y="573" fill="#d73027" font-family="Verdana" font-size="12">1,1</text>
</g>

<!-- Association A_PHOTO -->
<g>
	<line x1="375" y1="632" x2="552" y2="632" stroke="#74add1" stroke-width="2"/>
	<line x1="552" y1="514" x2="552" y2="632" stroke="#74add1" stroke-width="2"/>
	<g>
		<path d="M575 607 a14 14 90 0 1 14 14 V632 h-74 V621 a14 14 90 0 1 14 -14" fill="#abd9e9" stroke="#abd9e9" stroke-width="0"/>
		<path d="M589 632 v11 a14 14 90 0 1 -14 14 H529 a14 14 90 0 1 -14 -14 V632 H74" fill="#e0f3f8" stroke="#e0f3f8" stroke-width="0"/>
		<rect x="515" y="607" width="74" height="50" fill="none" rx="14" stroke="#74add1" stroke-width="2"/>
		<line x1="515" y1="632" x2="589" y2="632" stroke="#74add1" stroke-width="1"/>
		<text x="523" y="624.75" fill="#000000" font-family="Verdana" font-size="12">A_PHOTO</text>
	</g>
	<text x="403" y="649" fill="#d73027" font-family="Verdana" font-size="12">1,1</text>
	<text x="525" y="573" fill="#d73027" font-family="Verdana" font-size="12">0,N</text>
</g>

<!-- Association A_LIEN_RS -->
<g>
	<line x1="812" y1="632" x2="681" y2="632" stroke="#74add1" stroke-width="2"/>
	<line x1="552" y1="514" x2="681" y2="632" stroke="#74add1" stroke-width="2"/>
	<g>
		<path d="M709 607 a14 14 90 0 1 14 14 V632 h-84 V621 a14 14 90 0 1 14 -14" fill="#abd9e9" stroke="#abd9e9" stroke-width="0"/>
		<path d="M723 632 v11 a14 14 90 0 1 -14 14 H653 a14 14 90 0 1 -14 -14 V632 H84" fill="#e0f3f8" stroke="#e0f3f8" stroke-width="0"/>
		<rect x="639" y="607" width="84" height="50" fill="none" rx="14" stroke="#74add1" stroke-width="2"/>
		<line x1="639" y1="632" x2="723" y2="632" stroke="#74add1" stroke-width="1"/>
		<text x="647" y="624.75" fill="#000000" font-family="Verdana" font-size="12">A_LIEN_RS</text>
	</g>
	<text x="751" y="649" fill="#d73027" font-family="Verdana" font-size="12">1,1</text>
	<text x="601" y="552.87" fill="#d73027" font-family="Verdana" font-size="12">0,N</text>
</g>

<!-- Entity EVENEMENT -->
<g>
	<g>
		<rect x="140" y="9" width="124" height="25" fill="#fdae61" stroke="none" stroke-width="0" opacity="1"/>
		<rect x="140" y="34" width="124" height="195" fill="#fee090" stroke="none" stroke-width="0" opacity="1"/>
		<rect x="140" y="9" width="124" height="220" fill="none" stroke="#f46d43" stroke-width="2" opacity="1"/>
		<line x1="140" y1="34" x2="264" y2="34" stroke="#f46d43" stroke-width="1"/>
	</g>
	<text x="168" y="26.75" fill="#000000" font-family="Verdana" font-size="12">Evenement</text>
	<text x="145" y="51.8" fill="#000000" font-family="Verdana" font-size="12">ref_evenement</text>
	<line x1="145" y1="54" x2="238" y2="54" stroke="#000000" stroke-width="1"/>
	<text x="145" y="68.8" fill="#000000" font-family="Verdana" font-size="12">jour_deb</text>
	<text x="145" y="85.8" fill="#000000" font-family="Verdana" font-size="12">heure_deb</text>
	<text x="145" y="102.8" fill="#000000" font-family="Verdana" font-size="12">jour_fin</text>
	<text x="145" y="119.8" fill="#000000" font-family="Verdana" font-size="12">heure_fin</text>
	<text x="145" y="136.8" fill="#000000" font-family="Verdana" font-size="12">duree</text>
	<text x="145" y="153.8" fill="#000000" font-family="Verdana" font-size="12">temps_montage</text>
	<text x="145" y="170.8" fill="#000000" font-family="Verdana" font-size="12">temps_demontage</text>
	<text x="145" y="187.8" fill="#000000" font-family="Verdana" font-size="12">est_public</text>
	<text x="145" y="204.8" fill="#000000" font-family="Verdana" font-size="12">nb_place</text>
	<text x="145" y="221.8" fill="#000000" font-family="Verdana" font-size="12">a_preinscription</text>
</g>

<!-- Entity TYPE_EVEMENENT -->
<g>
	<g>
		<rect x="486" y="85" width="132" height="25" fill="#fdae61" stroke="none" stroke-width="0" opacity="1"/>
		<rect x="486" y="110" width="132" height="43" fill="#fee090" stroke="none" stroke-width="0" opacity="1"/>
		<rect x="486" y="85" width="132" height="68" fill="none" stroke="#f46d43" stroke-width="2" opacity="1"/>
		<line x1="486" y1="110" x2="618" y2="110" stroke="#f46d43" stroke-width="1"/>
	</g>
	<text x="499" y="102.75" fill="#000000" font-family="Verdana" font-size="12">Type_Evemenent</text>
	<text x="491" y="127.8" fill="#000000" font-family="Verdana" font-size="12">id_type_evenement</text>
	<line x1="491" y1="130" x2="612" y2="130" stroke="#000000" stroke-width="1"/>
	<text x="491" y="144.8" fill="#000000" font-family="Verdana" font-size="12">libelle</text>
</g>

<!-- Entity LIEU -->
<g>
	<g>
		<rect x="12" y="237" width="92" height="25" fill="#fdae61" stroke="none" stroke-width="0" opacity="1"/>
		<rect x="12" y="262" width="92" height="59" fill="#fee090" stroke="none" stroke-width="0" opacity="1"/>
		<rect x="12" y="237" width="92" height="84" fill="none" stroke="#f46d43" stroke-width="2" opacity="1"/>
		<line x1="12" y1="262" x2="104" y2="262" stroke="#f46d43" stroke-width="1"/>
	</g>
	<text x="45" y="254.75" fill="#000000" font-family="Verdana" font-size="12">Lieu</text>
	<text x="17" y="279.8" fill="#000000" font-family="Verdana" font-size="12">id_lieu</text>
	<line x1="17" y1="282" x2="58" y2="282" stroke="#000000" stroke-width="1"/>
	<text x="17" y="296.8" fill="#000000" font-family="Verdana" font-size="12">nom_lieu</text>
	<text x="17" y="313.8" fill="#000000" font-family="Verdana" font-size="12">emplacement</text>
</g>

<!-- Entity STYLE_MUSICAL -->
<g>
	<g>
		<rect x="505" y="245" width="94" height="25" fill="#fdae61" stroke="none" stroke-width="0" opacity="1"/>
		<rect x="505" y="270" width="94" height="43" fill="#fee090" stroke="none" stroke-width="0" opacity="1"/>
		<rect x="505" y="245" width="94" height="68" fill="none" stroke="#f46d43" stroke-width="2" opacity="1"/>
		<line x1="505" y1="270" x2="599" y2="270" stroke="#f46d43" stroke-width="1"/>
	</g>
	<text x="511" y="262.75" fill="#000000" font-family="Verdana" font-size="12">Style_Musical</text>
	<text x="510" y="287.8" fill="#000000" font-family="Verdana" font-size="12">id_style</text>
	<line x1="510" y1="290" x2="558" y2="290" stroke="#000000" stroke-width="1"/>
	<text x="510" y="304.8" fill="#000000" font-family="Verdana" font-size="12">libelle</text>
</g>

<!-- Entity ARTISTE -->
<g>
	<g>
		<rect x="652" y="237" width="58" height="25" fill="#fdae61" stroke="none" stroke-width="0" opacity="1"/>
		<rect x="652" y="262" width="58" height="59" fill="#fee090" stroke="none" stroke-width="0" opacity="1"/>
		<rect x="652" y="237" width="58" height="84" fill="none" stroke="#f46d43" stroke-width="2" opacity="1"/>
		<line x1="652" y1="262" x2="710" y2="262" stroke="#f46d43" stroke-width="1"/>
	</g>
	<text x="661" y="254.75" fill="#000000" font-family="Verdana" font-size="12">Artiste</text>
	<text x="657" y="279.8" fill="#000000" font-family="Verdana" font-size="12">id_art</text>
	<line x1="657" y1="282" x2="693" y2="282" stroke="#000000" stroke-width="1"/>
	<text x="657" y="296.8" fill="#000000" font-family="Verdana" font-size="12">nom</text>
	<text x="657" y="313.8" fill="#000000" font-family="Verdana" font-size="12">prenom</text>
</g>

<!-- Entity SPECTATEUR -->
<g>
	<g>
		<rect x="150" y="329" width="104" height="25" fill="#fdae61" stroke="none" stroke-width="0" opacity="1"/>
		<rect x="150" y="354" width="104" height="93" fill="#fee090" stroke="none" stroke-width="0" opacity="1"/>
		<rect x="150" y="329" width="104" height="118" fill="none" stroke="#f46d43" stroke-width="2" opacity="1"/>
		<line x1="150" y1="354" x2="254" y2="354" stroke="#f46d43" stroke-width="1"/>
	</g>
	<text x="169" y="346.75" fill="#000000" font-family="Verdana" font-size="12">Spectateur</text>
	<text x="155" y="371.8" fill="#000000" font-family="Verdana" font-size="12">mail</text>
	<line x1="155" y1="374" x2="181" y2="374" stroke="#000000" stroke-width="1"/>
	<text x="155" y="388.8" fill="#000000" font-family="Verdana" font-size="12">nom</text>
	<text x="155" y="405.8" fill="#000000" font-family="Verdana" font-size="12">prenom</text>
	<text x="155" y="422.8" fill="#000000" font-family="Verdana" font-size="12">mot_de_passe</text>
	<text x="155" y="439.8" fill="#000000" font-family="Verdana" font-size="12">date_naissance</text>
</g>

<!-- Entity INTRUMENT -->
<g>
	<g>
		<rect x="772" y="354" width="80" height="25" fill="#fdae61" stroke="none" stroke-width="0" opacity="1"/>
		<rect x="772" y="379" width="80" height="43" fill="#fee090" stroke="none" stroke-width="0" opacity="1"/>
		<rect x="772" y="354" width="80" height="68" fill="none" stroke="#f46d43" stroke-width="2" opacity="1"/>
		<line x1="772" y1="379" x2="852" y2="379" stroke="#f46d43" stroke-width="1"/>
	</g>
	<text x="781" y="371.75" fill="#000000" font-family="Verdana" font-size="12">Intrument</text>
	<text x="777" y="396.8" fill="#000000" font-family="Verdana" font-size="12">id_instru</text>
	<line x1="777" y1="399" x2="831" y2="399" stroke="#000000" stroke-width="1"/>
	<text x="777" y="413.8" fill="#000000" font-family="Verdana" font-size="12">nom_instru</text>
</g>

<!-- Entity BILLET -->
<g>
	<g>
		<rect x="9" y="472" width="98" height="25" fill="#fdae61" stroke="none" stroke-width="0" opacity="1"/>
		<rect x="9" y="497" width="98" height="59" fill="#fee090" stroke="none" stroke-width="0" opacity="1"/>
		<rect x="9" y="472" width="98" height="84" fill="none" stroke="#f46d43" stroke-width="2" opacity="1"/>
		<line x1="9" y1="497" x2="107" y2="497" stroke="#f46d43" stroke-width="1"/>
	</g>
	<text x="43" y="489.75" fill="#000000" font-family="Verdana" font-size="12">Billet</text>
	<text x="14" y="514.8" fill="#000000" font-family="Verdana" font-size="12">id_billet</text>
	<line x1="14" y1="517" x2="63" y2="517" stroke="#000000" stroke-width="1"/>
	<text x="14" y="531.8" fill="#000000" font-family="Verdana" font-size="12">debut_validite</text>
	<text x="14" y="548.8" fill="#000000" font-family="Verdana" font-size="12">fin_validite</text>
</g>

<!-- Entity HEBERGEMENT -->
<g>
	<g>
		<rect x="139" y="472" width="126" height="25" fill="#fdae61" stroke="none" stroke-width="0" opacity="1"/>
		<rect x="139" y="497" width="126" height="59" fill="#fee090" stroke="none" stroke-width="0" opacity="1"/>
		<rect x="139" y="472" width="126" height="84" fill="none" stroke="#f46d43" stroke-width="2" opacity="1"/>
		<line x1="139" y1="497" x2="265" y2="497" stroke="#f46d43" stroke-width="1"/>
	</g>
	<text x="161" y="489.75" fill="#000000" font-family="Verdana" font-size="12">Hebergement</text>
	<text x="144" y="514.8" fill="#000000" font-family="Verdana" font-size="12">id_hebergement</text>
	<line x1="144" y1="517" x2="244" y2="517" stroke="#000000" stroke-width="1"/>
	<text x="144" y="531.8" fill="#000000" font-family="Verdana" font-size="12">nom_hebergement</text>
	<text x="144" y="548.8" fill="#000000" font-family="Verdana" font-size="12">nb_place_jour</text>
</g>

<!-- Entity GROUPE -->
<g>
	<g>
		<rect x="508" y="472" width="88" height="25" fill="#fdae61" stroke="none" stroke-width="0" opacity="1"/>
		<rect x="508" y="497" width="88" height="59" fill="#fee090" stroke="none" stroke-width="0" opacity="1"/>
		<rect x="508" y="472" width="88" height="84" fill="none" stroke="#f46d43" stroke-width="2" opacity="1"/>
		<line x1="508" y1="497" x2="596" y2="497" stroke="#f46d43" stroke-width="1"/>
	</g>
	<text x="530" y="489.75" fill="#000000" font-family="Verdana" font-size="12">Groupe</text>
	<text x="513" y="514.8" fill="#000000" font-family="Verdana" font-size="12">id_g</text>
	<line x1="513" y1="517" x2="540" y2="517" stroke="#000000" stroke-width="1"/>
	<text x="513" y="531.8" fill="#000000" font-family="Verdana" font-size="12">nom_groupe</text>
	<text x="513" y="548.8" fill="#000000" font-family="Verdana" font-size="12">description</text>
</g>

<!-- Entity LIEN_VIDEO -->
<g>
	<g>
		<rect x="766" y="480" width="92" height="25" fill="#fdae61" stroke="none" stroke-width="0" opacity="1"/>
		<rect x="766" y="505" width="92" height="43" fill="#fee090" stroke="none" stroke-width="0" opacity="1"/>
		<rect x="766" y="480" width="92" height="68" fill="none" stroke="#f46d43" stroke-width="2" opacity="1"/>
		<line x1="766" y1="505" x2="858" y2="505" stroke="#f46d43" stroke-width="1"/>
	</g>
	<text x="779" y="497.75" fill="#000000" font-family="Verdana" font-size="12">Lien_video</text>
	<text x="771" y="522.8" fill="#000000" font-family="Verdana" font-size="12">id_lien_video</text>
	<line x1="771" y1="525" x2="852" y2="525" stroke="#000000" stroke-width="1"/>
	<text x="771" y="539.8" fill="#000000" font-family="Verdana" font-size="12">lien_video</text>
</g>

<!-- Entity TYPE_BILLET -->
<g>
	<g>
		<rect x="155" y="581" width="94" height="25" fill="#fdae61" stroke="none" stroke-width="0" opacity="1"/>
		<rect x="155" y="606" width="94" height="77" fill="#fee090" stroke="none" stroke-width="0" opacity="1"/>
		<rect x="155" y="581" width="94" height="102" fill="none" stroke="#f46d43" stroke-width="2" opacity="1"/>
		<line x1="155" y1="606" x2="249" y2="606" stroke="#f46d43" stroke-width="1"/>
	</g>
	<text x="168" y="598.75" fill="#000000" font-family="Verdana" font-size="12">Type_Billet</text>
	<text x="160" y="623.8" fill="#000000" font-family="Verdana" font-size="12">id_type_billet</text>
	<line x1="160" y1="626" x2="243" y2="626" stroke="#000000" stroke-width="1"/>
	<text x="160" y="640.8" fill="#000000" font-family="Verdana" font-size="12">libelle</text>
	<text x="160" y="657.8" fill="#000000" font-family="Verdana" font-size="12">duree</text>
	<text x="160" y="674.8" fill="#000000" font-family="Verdana" font-size="12">prix</text>
</g>

<!-- Entity PHOTO -->
<g>
	<g>
		<rect x="352" y="598" width="46" height="25" fill="#fdae61" stroke="none" stroke-width="0" opacity="1"/>
		<rect x="352" y="623" width="46" height="43" fill="#fee090" stroke="none" stroke-width="0" opacity="1"/>
		<rect x="352" y="598" width="46" height="68" fill="none" stroke="#f46d43" stroke-width="2" opacity="1"/>
		<line x1="352" y1="623" x2="398" y2="623" stroke="#f46d43" stroke-width="1"/>
	</g>
	<text x="358" y="615.75" fill="#000000" font-family="Verdana" font-size="12">Photo</text>
	<text x="357" y="640.8" fill="#000000" font-family="Verdana" font-size="12">id_ph</text>
	<line x1="357" y1="643" x2="392" y2="643" stroke="#000000" stroke-width="1"/>
	<text x="357" y="657.8" fill="#000000" font-family="Verdana" font-size="12">photo</text>
</g>

<!-- Entity LIEN_RS -->
<g>
	<g>
		<rect x="777" y="598" width="70" height="25" fill="#fdae61" stroke="none" stroke-width="0" opacity="1"/>
		<rect x="777" y="623" width="70" height="43" fill="#fee090" stroke="none" stroke-width="0" opacity="1"/>
		<rect x="777" y="598" width="70" height="68" fill="none" stroke="#f46d43" stroke-width="2" opacity="1"/>
		<line x1="777" y1="623" x2="847" y2="623" stroke="#f46d43" stroke-width="1"/>
	</g>
	<text x="790" y="615.75" fill="#000000" font-family="Verdana" font-size="12">Lien_rs</text>
	<text x="782" y="640.8" fill="#000000" font-family="Verdana" font-size="12">id_lien_rs</text>
	<line x1="782" y1="643" x2="842" y2="643" stroke="#000000" stroke-width="1"/>
	<text x="782" y="657.8" fill="#000000" font-family="Verdana" font-size="12">lien_rs</text>
</g>
</svg>